<?xml version="1.0" encoding="UTF-8"?>
<svg id="Layer_2" data-name="Layer 2" xmlns="http://www.w3.org/2000/svg" viewBox="0 0 63.27 36.83">
  <defs>
    <style>
      .cls-1 {
        fill: #fff;
      }
    </style>
  </defs>
  <g id="Layer_1-2" data-name="Layer 1">
    <g>
      <g>
        <path class="cls-1" d="m9.64,4.65C4.32,4.65,0,9.03,0,14.42s4.32,9.76,9.64,9.76,9.64-4.37,9.64-9.76S14.97,4.65,9.64,4.65Zm0,16.84c-3.86,0-6.99-3.17-6.99-7.08s3.13-7.08,6.99-7.08,6.99,3.17,6.99,7.08-3.13,7.08-6.99,7.08Z"/>
        <ellipse class="cls-1" cx="9.64" cy="14.42" rx="1.92" ry="1.95"/>
      </g>
      <g>
        <g>
          <path class="cls-1" d="m22.05,6.5V.12h1.82c2,0,3.31.93,3.31,3.16s-1.34,3.22-3.31,3.22h-1.82Zm1.08-.97h.84c1.46,0,2.14-.64,2.14-2.25s-.69-2.16-2.16-2.16h-.82v4.41Z"/>
          <path class="cls-1" d="m28.39,6.5V.12h1.09v6.38h-1.09Z"/>
          <path class="cls-1" d="m30.69,3.28c0-2.04,1.11-3.28,2.81-3.28,1.21,0,2.09.56,2.47,2.01l-1,.27c-.28-.96-.72-1.28-1.48-1.28s-1.72.47-1.72,2.26.85,2.4,1.76,2.4c.84,0,1.42-.5,1.49-1.44h-1.28v-.87h2.32v3.16h-.89v-.92h-.02c-.2.46-.76,1.04-1.74,1.04-1.83,0-2.72-1.39-2.72-3.34Z"/>
          <path class="cls-1" d="m37.49,6.5V.12h1.09v6.38h-1.09Z"/>
          <path class="cls-1" d="m41.57,6.5V1.12h-1.97V.12h5.01v1h-1.96v5.38h-1.08Z"/>
          <path class="cls-1" d="m44.29,6.5L46.55.09h1.06l2.26,6.41h-1.1l-.52-1.52h-2.42l-.53,1.52h-1.01Zm1.86-2.47h1.78l-.87-2.59h-.02l-.89,2.59Z"/>
          <path class="cls-1" d="m50.81,6.5V.12h1.08v5.4h2.94v.98h-4.02Z"/>
          <path class="cls-1" d="m21.81,18.82l2.7-1.68c.8,1.3,2.14,2.04,3.54,2.04,1.11,0,1.95-.33,1.95-1.17s-1.08-1.19-2.41-1.52c-2.21-.57-5.15-1.13-5.15-4.2,0-2.76,2.08-4.27,5.15-4.27,2.87,0,4.58,1.33,5.66,2.65l-2.45,2.01c-.75-.91-2.06-1.7-3.23-1.7-1.04,0-1.57.35-1.57.99,0,.89,1.06,1.22,2.39,1.55,2.21.53,5.16,1.2,5.16,4.23,0,2.15-1.51,4.29-5.68,4.29-3.08,0-4.93-1.39-6.08-3.23Z"/>
          <path class="cls-1" d="m35.52,21.79v-13.5h4.84l2.37,9.16h.04l2.14-9.16h4.95v13.5h-3.49v-8.36h-.04c-.22,1.39-.44,2.24-.73,3.29l-1.42,5.07h-3.21l-1.39-5.07c-.31-1.1-.47-1.7-.77-3.47h-.04v8.54h-3.25Z"/>
          <path class="cls-1" d="m52.36,21.79v-13.5h5.68c2.25,0,4.91.35,4.91,3.32,0,1.95-1.2,2.83-2.55,3.08v.04c1.64.29,2.88,1.08,2.88,3.32,0,2.94-2.74,3.74-5.02,3.74h-5.9Zm3.58-8.12h1.73c1.31,0,1.81-.51,1.81-1.3s-.49-1.3-1.77-1.3h-1.77v2.59Zm0,5.38h1.83c1.37,0,1.95-.53,1.95-1.46s-.6-1.41-1.99-1.41h-1.79v2.87Z"/>
          <path class="cls-1" d="m21.71,28.85l.85-.45c.38.75.97,1.11,1.76,1.11s1.3-.25,1.3-.83-.4-.81-1.45-1.12c-1.23-.36-2.22-.7-2.22-1.91,0-1.09.89-1.8,2.18-1.8s2,.62,2.39,1.37l-.78.54c-.38-.64-.92-.93-1.61-.93s-1.11.26-1.11.72c0,.59.46.79,1.5,1.1,1.21.35,2.17.75,2.17,1.95,0,1.04-.89,1.86-2.41,1.86-1.27,0-2.16-.66-2.57-1.62Z"/>
          <path class="cls-1" d="m27.64,28.02v-4.05h1.08v3.96c0,.97.42,1.55,1.41,1.55s1.4-.56,1.4-1.54v-3.97h1.06v4.04c0,1.45-.82,2.44-2.47,2.44-1.76,0-2.47-.98-2.47-2.43Z"/>
          <path class="cls-1" d="m33.95,30.35v-6.38h1.42l1.71,5.06h.02l1.66-5.06h1.45v6.38h-1.04v-4.76h-.02c-.09.44-.23.85-.38,1.3l-1.24,3.46h-.96l-1.23-3.46c-.16-.46-.25-.73-.39-1.34h-.02v4.8h-.97Z"/>
          <path class="cls-1" d="m41.65,30.35v-6.38h1.42l1.71,5.06h.02l1.66-5.06h1.45v6.38h-1.04v-4.76h-.02c-.09.44-.23.85-.38,1.3l-1.24,3.46h-.96l-1.23-3.46c-.16-.46-.25-.73-.39-1.34h-.02v4.8h-.97Z"/>
          <path class="cls-1" d="m49.42,30.35v-6.38h1.09v6.38h-1.09Z"/>
          <path class="cls-1" d="m53.5,30.35v-5.38h-1.97v-1h5.01v1h-1.97v5.38h-1.08Z"/>
        </g>
        <g>
          <path class="cls-1" d="m22.64,36.8l-.73-2.08h.25l.59,1.75h0l.6-1.75h.24l-.73,2.08h-.23Z"/>
          <path class="cls-1" d="m24.53,36.79v-2.07h.25v2.07h-.25Z"/>
          <path class="cls-1" d="m25.88,36.79v-2.07h.71c.47,0,.73.2.73.58,0,.33-.19.5-.48.57l.51.92h-.27l-.49-.89h-.47v.89h-.24Zm.24-1.11h.45c.32,0,.51-.09.51-.37s-.18-.36-.51-.36h-.45v.73Z"/>
          <path class="cls-1" d="m28.77,36.79v-1.84h-.66v-.23h1.56v.23h-.66v1.84h-.25Z"/>
          <path class="cls-1" d="m30.56,36.07v-1.35h.25v1.32c0,.33.16.56.52.56s.52-.22.52-.56v-1.32h.24v1.35c0,.43-.25.76-.77.76s-.77-.32-.77-.75Z"/>
          <path class="cls-1" d="m32.91,36.79l.73-2.08h.26l.73,2.08h-.25l-.2-.59h-.82l-.2.59h-.24Zm.52-.81h.67l-.33-.97h0l-.33.97Z"/>
          <path class="cls-1" d="m35.53,36.79v-2.07h.25v1.84h.99v.22h-1.24Z"/>
          <path class="cls-1" d="m38.69,35.75c0-.64.36-1.06.88-1.06.44,0,.67.25.77.63l-.24.06c-.09-.31-.23-.47-.53-.47-.38,0-.62.32-.62.83,0,.55.25.86.63.86.29,0,.47-.16.56-.5l.23.05c-.1.41-.36.67-.8.67-.52,0-.88-.41-.88-1.08Z"/>
          <path class="cls-1" d="m41.2,35.75c0-.67.38-1.07.89-1.07s.89.41.89,1.07-.38,1.07-.89,1.07-.89-.41-.89-1.07Zm1.54,0c0-.54-.27-.85-.64-.85s-.64.31-.64.85.26.85.64.85.64-.31.64-.85Z"/>
          <path class="cls-1" d="m43.95,36.79v-2.07h.26l1.09,1.63h0v-1.63h.23v2.07h-.22l-1.13-1.68h0v1.68h-.23Z"/>
          <path class="cls-1" d="m46.61,36.79v-2.07h1.24v.23h-.99v.66h.73v.22h-.73v.96h-.25Z"/>
          <path class="cls-1" d="m48.76,36.79v-2.07h1.27v.23h-1.02v.64h.76v.22h-.76v.75h1.08v.22h-1.33Z"/>
          <path class="cls-1" d="m51.03,36.79v-2.07h.71c.47,0,.74.2.74.58,0,.33-.19.5-.48.57l.51.92h-.27l-.5-.89h-.47v.89h-.24Zm.24-1.11h.45c.32,0,.51-.09.51-.37s-.18-.36-.51-.36h-.45v.73Z"/>
          <path class="cls-1" d="m53.48,36.79v-2.07h1.27v.23h-1.02v.64h.76v.22h-.76v.75h1.08v.22h-1.33Z"/>
          <path class="cls-1" d="m55.75,36.79v-2.07h.26l1.09,1.63h0v-1.63h.23v2.07h-.22l-1.13-1.68h0v1.68h-.23Z"/>
          <path class="cls-1" d="m58.31,35.75c0-.64.36-1.06.88-1.06.44,0,.67.25.77.63l-.24.06c-.09-.31-.23-.47-.53-.47-.38,0-.62.32-.62.83,0,.55.25.86.63.86.29,0,.47-.16.56-.5l.23.05c-.1.41-.36.67-.8.67-.52,0-.88-.41-.88-1.08Z"/>
          <path class="cls-1" d="m60.94,36.79v-2.07h1.27v.23h-1.02v.64h.76v.22h-.76v.75h1.08v.22h-1.33Z"/>
        </g>
      </g>
    </g>
  </g>
</svg>