<?xml version="1.0" encoding="UTF-8"?>
<svg id="Layer_2" data-name="Layer 2" xmlns="http://www.w3.org/2000/svg" viewBox="0 0 136.54 46.31">
  <defs>
    <style>
      .cls-1 {
        fill: #231f20;
      }

      .cls-2 {
        fill: #07b0db;
      }

      .cls-2, .cls-3 {
        fill-rule: evenodd;
      }

      .cls-3 {
        fill: #64cbe5;
      }
    </style>
  </defs>
  <g id="Layer_1-2" data-name="Layer 1">
    <g>
      <g>
        <path class="cls-3" d="m12.01,0c1.16-.06,2.11.26,2.09.76,0,.61-1.06,1.18-2.35,1.23-1.3.08-2.24-.37-2.09-.97.13-.49,1.19-.92,2.35-1.02"/>
        <path class="cls-2" d="m18.69.24c1.11.18,2.19.66,2.4,1.14.22.58-.62.97-1.86.82-1.29-.12-2.4-.76-2.46-1.36-.08-.5.79-.74,1.92-.61"/>
        <path class="cls-2" d="m24.61,1.79c.87.39,1.87.99,2.28,1.4.42.52-.03.69-1.01.36-1.05-.31-2.16-1.07-2.44-1.63-.29-.46.24-.49,1.17-.13"/>
        <path class="cls-3" d="m4.28,4.11c1.19-.23,2.05.32,1.86,1.29-.16,1.04-1.36,2.08-2.66,2.26-1.25.21-2.01-.47-1.76-1.46.29-.92,1.41-1.83,2.55-2.09"/>
        <path class="cls-2" d="m19.43,3.41c1.29.14,2.47,1,2.64,1.97.16,1.05-.84,1.85-2.23,1.74-1.43-.09-2.66-1.07-2.72-2.15-.06-.99.98-1.67,2.31-1.55"/>
        <path class="cls-3" d="m27.68,9.83c1.15.21,2.23,1.36,2.44,2.6.18,1.27-.61,2.23-1.83,2.09-1.28-.13-2.46-1.36-2.59-2.72-.15-1.31.75-2.17,1.97-1.97"/>
        <path class="cls-3" d="m2.38,21.97c-1.38.02-2.43-1.19-2.38-2.68.07-1.47,1.2-2.72,2.55-2.81,1.81-.1,2.44,1.31,4.08,1.26,1.68-.04,2.46-1.52,4.46-1.55t0,0s.07,0,.11,0c1.58-.01,2.87,1.25,2.87,2.83,0,1.6-1.31,2.91-2.92,2.91-.04,0-.08,0-.11,0,0,0,0,0,0,0-2.03,0-2.77-1.5-4.46-1.48-1.65.02-2.37,1.51-4.2,1.52"/>
        <path class="cls-2" d="m20.3,16.25c1.52.05,2.78,1.33,2.82,2.87.03,1.56-1.19,2.82-2.74,2.82-1.58,0-2.87-1.32-2.88-2.91,0-1.57,1.25-2.81,2.8-2.78"/>
        <path class="cls-2" d="m2.38,24.34c1.43,0,2.64,1.29,2.67,2.85.04,1.54-1.09,2.71-2.5,2.64C1.2,29.75.07,28.49,0,27.02c-.05-1.5,1-2.71,2.38-2.68"/>
        <path class="cls-2" d="m11.15,24.38c1.61,0,2.92,1.31,2.92,2.91,0,1.58-1.29,2.84-2.87,2.83-1.58-.03-2.87-1.31-2.89-2.87-.02-1.58,1.25-2.87,2.85-2.87"/>
        <path class="cls-2" d="m34.81,24.16c.76-.03,1.28.99,1.2,2.24-.11,1.24-.77,2.37-1.52,2.52-.84.14-1.5-.83-1.4-2.19.06-1.38.86-2.54,1.72-2.56"/>
        <path class="cls-2" d="m28.3,31.79c1.21-.14,2.01.81,1.83,2.09-.21,1.23-1.29,2.38-2.44,2.6-1.22.2-2.12-.67-1.97-1.97.13-1.36,1.31-2.59,2.59-2.71"/>
        <path class="cls-3" d="m3.48,38.65c1.3.18,2.5,1.22,2.66,2.26.18.97-.67,1.52-1.86,1.29-1.14-.26-2.27-1.17-2.55-2.09-.26-.99.51-1.67,1.76-1.46"/>
        <path class="cls-2" d="m11.44,39.34c1.46.04,2.66.98,2.65,2.06.01,1-1.09,1.73-2.46,1.68-1.34-.08-2.5-.9-2.62-1.88-.1-1.07.97-1.92,2.43-1.86"/>
        <path class="cls-3" d="m11.42,37.47c1.91.03,2.63-1.21,4.3-1.22,1.65-.03,2.33,1.19,4.2,1.09h0s.03,0,.05,0c1.44-.1,2.68-1.23,2.79-2.57.1-1.4-1.03-2.49-2.54-2.43-.01,0-.03,0-.05,0h0c-1.96.06-2.73,1.46-4.43,1.49-1.71,0-2.46-1.38-4.45-1.4h0s-.04,0-.06,0c-1.55-.03-2.75,1.11-2.68,2.52.06,1.35,1.33,2.47,2.81,2.52.01,0,.04,0,.06,0h0"/>
        <path class="cls-3" d="m20.3,30.06c1.94-.07,2.7-1.53,4.3-1.59,1.54-.06,2.12,1.31,3.79,1.19t0,0s.06,0,.09-.01c1.23-.1,2.26-1.34,2.34-2.76.05-1.45-.88-2.61-2.13-2.6-.03,0-.06,0-.09,0h0c-1.69.02-2.38,1.48-3.93,1.52-1.61.03-2.32-1.46-4.28-1.45-1.58,0-2.87,1.32-2.88,2.91,0,1.57,1.25,2.81,2.8,2.78"/>
        <path class="cls-3" d="m11.23,13.89c2-.02,2.75-1.41,4.46-1.41,1.7.03,2.47,1.43,4.43,1.49t0,0s.07,0,.1,0c1.51.06,2.64-1.04,2.54-2.43-.11-1.34-1.35-2.47-2.79-2.57-.03,0-.07,0-.1,0h0c-1.87-.09-2.54,1.13-4.2,1.09-1.67,0-2.38-1.26-4.3-1.22-1.48.05-2.75,1.17-2.81,2.52-.07,1.41,1.13,2.56,2.68,2.52"/>
        <path class="cls-2" d="m28.69,22.02c1.58.02,2.11-1.34,3.33-1.29,1.12.04,1.61,1.37,2.73,1.41h0s.04,0,.06,0c.76.03,1.28-.99,1.2-2.24-.11-1.24-.77-2.37-1.52-2.51-.02-.02-.04-.01-.05,0h0c-1.1-.19-1.44,1.01-2.55.9-1.21-.1-1.86-1.48-3.41-1.62-1.3-.1-2.34,1.03-2.28,2.54.04,1.53,1.17,2.8,2.49,2.81"/>
        <path class="cls-2" d="m26.36,41.65c1.3-.4,2.1-1.35,3.11-1.72.93-.41.92.11,1.82-.45h0s.02-.01.04-.03c.59-.46,1.4-1.39,1.85-2.12.43-.82.28-1.21-.38-.85-.02.01-.04.03-.05.02h0c-.99.44-1.72,1.53-2.69,1.89-1.05.33-1.3-.5-2.72-.18-1.19.23-2.35,1.28-2.58,2.3-.22.94.5,1.42,1.59,1.13"/>
        <path class="cls-2" d="m27.34,8.1c1.42.32,1.66-.5,2.72-.18.98.37,1.71,1.45,2.69,1.89h0s.03,0,.05.02c.66.35.81-.04.38-.86-.45-.73-1.26-1.67-1.85-2.12-.02-.01-.04-.03-.04-.03h0c-.9-.56-.89-.04-1.82-.45-1.01-.37-1.81-1.32-3.11-1.72-1.09-.29-1.82.2-1.59,1.13.22,1.03,1.39,2.08,2.58,2.3"/>
        <polygon class="cls-2" points="34.15 36.21 34.15 36.22 34.15 36.21 34.15 36.21"/>
        <path class="cls-3" d="m37.16,29.63c-.32,1.14-.73,2.25-1.21,3.32,0,0,0,0,0,0h0c-.31.48-.13-.24-.59.12-.59.36-1.18,1.48-2.04,1.89-.79.31-1.26-.38-1.01-1.55.21-1.22,1.11-2.39,1.94-2.58.92-.27,1.01.72,1.61.45.48-.29.9-1.42,1.24-1.71h0s.01-.02.01-.02c.08-.1.09-.07.06.09h0Z"/>
        <path class="cls-2" d="m37.71,19.15c.08.45.14.9.19,1.36h0c.09,1.03.08,1.84-.08,1.82-.27-.04-.61-1.04-.7-2.21-.12-1.15.04-1.95.3-1.76.08.1.19.39.29.8"/>
        <path class="cls-3" d="m35.95,13.36c.48,1.07.89,2.18,1.21,3.32h0c.04.17.02.2-.06.09,0,0,0,0-.01-.02h0c-.35-.29-.76-1.42-1.24-1.71-.6-.28-.69.71-1.61.44-.83-.19-1.72-1.37-1.94-2.58-.25-1.18.22-1.87,1.01-1.55.86.41,1.45,1.53,2.04,1.89.46.36.28-.37.59.12h0s0,0,0,0"/>
        <path class="cls-2" d="m34.15,10.09c.3.46.59.93.86,1.41h0c-.25-.43-.57-.96-.85-1.41h0Z"/>
        <path class="cls-3" d="m11.75,44.31c1.3.05,2.36.63,2.35,1.23.02.5-.93.81-2.09.76-1.16-.1-2.22-.53-2.35-1.02-.15-.6.79-1.05,2.09-.97"/>
        <path class="cls-2" d="m19.23,44.11c1.24-.15,2.08.24,1.86.82-.21.48-1.29.96-2.4,1.14-1.14.14-2-.11-1.92-.61.06-.6,1.17-1.23,2.46-1.35"/>
        <path class="cls-3" d="m25.89,42.76c.98-.34,1.43-.16,1.01.36-.41.41-1.41,1.01-2.28,1.4-.93.36-1.46.32-1.17-.13.28-.56,1.4-1.31,2.44-1.63"/>
      </g>
      <g>
        <g>
          <path class="cls-1" d="m51.54,12.62h-1.42v-6.2h-1.95v-1.13h5.32v1.13h-1.95v6.2Z"/>
          <path class="cls-1" d="m57.08,10.89l1.11.15c-.14.49-.42.9-.84,1.21-.42.32-.94.48-1.56.48-.75,0-1.36-.25-1.82-.76-.46-.5-.69-1.19-.69-2.05s.23-1.5.69-2.04c.46-.54,1.09-.81,1.88-.81s1.37.26,1.79.79c.42.53.63,1.21.63,2.04v.14h-3.73c0,.37.03.66.11.89.07.22.21.42.42.58.21.16.47.25.78.25.6,0,1.01-.3,1.23-.88Zm-.08-1.62c0-.39-.12-.71-.35-.96-.23-.25-.52-.37-.86-.37s-.62.12-.84.35c-.23.23-.36.56-.4.98h2.45Z"/>
          <path class="cls-1" d="m62.54,10.63l1.05.11c-.14.68-.4,1.19-.79,1.51-.39.33-.86.49-1.41.49-.75,0-1.33-.27-1.73-.82-.4-.55-.6-1.21-.6-2.01s.22-1.49.66-2.03c.44-.53,1.03-.8,1.76-.8,1.18,0,1.89.62,2.11,1.87l-1.05.15c-.09-.67-.42-1.01-.99-1.01-.42,0-.72.18-.91.54-.19.36-.28.8-.28,1.32,0,.55.1.97.29,1.27.2.3.47.45.82.45.54,0,.89-.35,1.07-1.04Z"/>
          <path class="cls-1" d="m69.08,12.62h-1.23v-3.55c0-.38-.08-.65-.24-.81-.16-.16-.35-.23-.57-.23-.35,0-.64.14-.88.41-.24.28-.35.73-.35,1.37v2.82h-1.23v-7.34h1.23v2.86c.3-.78.84-1.17,1.6-1.17,1.11,0,1.67.64,1.67,1.92v3.73Z"/>
          <path class="cls-1" d="m75.04,12.62h-1.23v-3.39c0-.36-.08-.63-.25-.81-.17-.18-.36-.27-.6-.27-.32,0-.6.14-.84.42-.24.28-.36.7-.36,1.26v2.79h-1.23v-5.43h1.12v1.26c.39-.91.94-1.37,1.64-1.37.48,0,.88.15,1.22.45.34.3.51.83.51,1.59v3.5Z"/>
          <path class="cls-1" d="m78.63,12.74c-.8,0-1.41-.29-1.84-.86-.42-.58-.63-1.24-.63-1.98,0-.8.23-1.47.7-2,.47-.53,1.08-.8,1.85-.8s1.33.26,1.79.78c.47.52.7,1.2.7,2.03s-.24,1.55-.73,2.07c-.49.52-1.1.78-1.85.78Zm.04-1.01c.82,0,1.24-.61,1.24-1.84,0-.55-.1-.99-.3-1.31-.2-.32-.5-.48-.91-.48s-.74.17-.94.5c-.21.33-.31.77-.31,1.32,0,.59.11,1.04.33,1.35.22.31.51.47.89.47Z"/>
          <path class="cls-1" d="m83.55,12.62h-1.23v-7.34h1.23v7.34Z"/>
          <path class="cls-1" d="m87.15,12.74c-.8,0-1.42-.29-1.84-.86-.42-.58-.63-1.24-.63-1.98,0-.8.23-1.47.7-2,.47-.53,1.08-.8,1.85-.8s1.33.26,1.79.78c.47.52.7,1.2.7,2.03s-.24,1.55-.73,2.07c-.49.52-1.1.78-1.85.78Zm.04-1.01c.82,0,1.24-.61,1.24-1.84,0-.55-.1-.99-.3-1.31-.2-.32-.5-.48-.91-.48s-.74.17-.94.5c-.2.33-.31.77-.31,1.32,0,.59.11,1.04.33,1.35.22.31.51.47.89.47Z"/>
          <path class="cls-1" d="m95.79,6.16v.94h-.38c-.16,0-.31.02-.43.06-.12.04-.24.17-.36.38.43.35.65.74.65,1.17,0,.48-.2.88-.6,1.19-.4.32-.94.47-1.6.47-.29,0-.62-.05-1-.14-.25.11-.38.29-.38.53,0,.13.06.25.18.37.12.11.3.17.55.17h1.61c.55,0,.98.14,1.3.43.31.29.47.64.47,1.06,0,.51-.24.94-.71,1.27-.47.34-1.18.51-2.11.51-1.75,0-2.63-.49-2.63-1.47,0-.48.26-.85.79-1.1-.34-.29-.51-.59-.51-.9,0-.47.29-.85.87-1.13-.5-.3-.75-.72-.75-1.26,0-.45.18-.84.55-1.16.37-.32.93-.48,1.68-.48.34,0,.69.04,1.05.11.16-.69.6-1.04,1.31-1.04h.46Zm-4.13,6.17c-.18.16-.26.32-.26.47,0,.25.15.46.44.65.29.19.76.28,1.4.28.94,0,1.41-.24,1.41-.73,0-.18-.08-.31-.25-.41-.17-.09-.35-.14-.57-.14h-1.3c-.25,0-.54-.04-.88-.13Zm1.34-2.68c.67,0,1-.31,1-.94,0-.24-.08-.44-.25-.61-.17-.16-.41-.25-.73-.25s-.57.09-.75.26c-.18.17-.26.39-.26.65s.09.48.26.64c.18.17.42.25.73.25Z"/>
          <path class="cls-1" d="m100.6,7.2l-2.11,6.18c-.13.38-.31.67-.53.88-.22.21-.54.31-.95.31-.16,0-.4-.01-.7-.04v-.97h.59c.26.01.45-.03.57-.11.12-.08.22-.23.29-.45.07-.21.11-.34.11-.38,0-.02-.04-.13-.11-.33l-1.86-5.1h1.28l1.32,3.58,1.13-3.58h.98Z"/>
          <path class="cls-1" d="m103.46,10.85l1.29-.27c.15.73.74,1.09,1.77,1.09.47,0,.83-.09,1.08-.28.25-.19.38-.42.38-.69,0-.2-.06-.39-.17-.56-.11-.17-.36-.3-.74-.4l-1.4-.37c-.48-.12-.84-.27-1.06-.43-.23-.16-.41-.38-.55-.68-.14-.29-.21-.6-.21-.93,0-.66.25-1.18.73-1.58.49-.4,1.11-.59,1.87-.59.63,0,1.19.14,1.69.41.5.28.81.67.95,1.17l-1.26.31c-.19-.56-.65-.83-1.35-.83-.41,0-.73.09-.94.26-.22.17-.33.39-.33.66,0,.42.34.71,1.02.88l1.25.31c.75.19,1.26.47,1.52.84.26.37.39.78.39,1.23,0,.72-.27,1.29-.81,1.7-.54.41-1.25.62-2.11.62-.73,0-1.36-.15-1.91-.46-.55-.3-.91-.78-1.09-1.42Z"/>
          <path class="cls-1" d="m113.9,10.89l1.11.15c-.14.49-.42.9-.84,1.21-.41.32-.94.48-1.56.48-.75,0-1.36-.25-1.82-.76-.46-.5-.69-1.19-.69-2.05s.23-1.5.69-2.04,1.09-.81,1.88-.81,1.37.26,1.8.79c.42.53.63,1.21.63,2.04v.14h-3.73c0,.37.04.66.1.89.07.22.21.42.42.58.21.16.47.25.78.25.61,0,1.01-.3,1.22-.88Zm-.07-1.62c0-.39-.12-.71-.35-.96-.23-.25-.52-.37-.86-.37s-.62.12-.84.35c-.23.23-.36.56-.4.98h2.45Z"/>
          <path class="cls-1" d="m120.71,12.62h-1.22v-3.39c0-.36-.08-.63-.25-.81-.17-.18-.36-.27-.6-.27-.32,0-.6.14-.84.42s-.36.7-.36,1.26v2.79h-1.23v-5.43h1.12v1.26c.39-.91.94-1.37,1.64-1.37.48,0,.88.15,1.22.45.34.3.51.83.51,1.59v3.5Z"/>
          <path class="cls-1" d="m126.82,12.62h-1.17c-.1-.33-.17-.7-.19-1.1-.33.81-.94,1.21-1.84,1.21-.54,0-.97-.16-1.3-.48-.33-.32-.49-.71-.49-1.2,0-1.25,1.09-1.87,3.28-1.87.09,0,.2,0,.35,0v-.41c0-.56-.38-.84-1.15-.84s-1.17.28-1.27.84l-1.04-.16c.06-.45.29-.82.7-1.11.41-.29,1-.44,1.77-.44.42,0,.76.03,1.03.11.26.07.49.19.67.35.18.17.31.35.38.54.07.2.1.53.1.99v2.45c0,.35.05.72.16,1.1Zm-1.35-2.76c-1.58,0-2.38.38-2.38,1.13,0,.23.08.42.24.58.16.16.4.24.72.24.47,0,.82-.15,1.06-.44.24-.3.36-.63.36-1.01v-.5Z"/>
          <path class="cls-1" d="m130.64,11.67v.96c-.37.08-.65.12-.85.12-.33,0-.61-.07-.85-.2-.24-.13-.41-.31-.52-.54-.11-.23-.16-.58-.16-1.05v-2.81h-.68v-.95h.75l.11-1.41,1-.09v1.5h1.09v.95h-1.09v2.65c0,.34.06.57.19.7.12.12.36.18.7.18.1,0,.2,0,.31,0Z"/>
          <path class="cls-1" d="m134.97,10.89l1.11.15c-.14.49-.42.9-.84,1.21-.42.32-.94.48-1.56.48-.75,0-1.36-.25-1.82-.76-.46-.5-.69-1.19-.69-2.05s.23-1.5.69-2.04c.46-.54,1.09-.81,1.88-.81s1.37.26,1.8.79c.42.53.63,1.21.63,2.04v.14h-3.73c0,.37.04.66.1.89.07.22.21.42.42.58.21.16.47.25.78.25.61,0,1.02-.3,1.23-.88Zm-.08-1.62c0-.39-.12-.71-.35-.96-.23-.25-.52-.37-.86-.37s-.62.12-.84.35c-.23.23-.36.56-.4.98h2.45Z"/>
        </g>
        <g>
          <path class="cls-1" d="m47.65,39.55v-20.71h2.92l6.64,10.48c1.54,2.43,2.73,4.61,3.72,6.73l.06-.03c-.25-2.77-.31-5.29-.31-8.51v-8.67h2.52v20.71h-2.7l-6.58-10.51c-1.44-2.3-2.83-4.67-3.87-6.92l-.09.03c.15,2.61.21,5.1.21,8.54v8.85h-2.52Z"/>
          <path class="cls-1" d="m85.58,28.98c0,7.13-4.33,10.91-9.62,10.91s-9.31-4.24-9.31-10.51c0-6.58,4.09-10.88,9.62-10.88s9.31,4.33,9.31,10.48Zm-16.07.34c0,4.42,2.4,8.39,6.61,8.39s6.64-3.9,6.64-8.6c0-4.12-2.15-8.42-6.61-8.42s-6.64,4.09-6.64,8.64Z"/>
          <path class="cls-1" d="m89.06,19.11c1.35-.28,3.29-.43,5.13-.43,2.86,0,4.7.52,5.99,1.69,1.04.92,1.63,2.33,1.63,3.93,0,2.73-1.72,4.55-3.9,5.29v.09c1.6.55,2.55,2.03,3.04,4.18.68,2.89,1.17,4.89,1.6,5.69h-2.77c-.34-.61-.8-2.37-1.38-4.95-.61-2.86-1.72-3.93-4.15-4.03h-2.52v8.97h-2.67v-20.44Zm2.67,9.43h2.74c2.86,0,4.67-1.57,4.67-3.93,0-2.67-1.94-3.84-4.76-3.87-1.29,0-2.21.12-2.64.25v7.56Z"/>
          <path class="cls-1" d="m109.8,21.11h-6.3v-2.27h15.33v2.27h-6.33v18.44h-2.7v-18.44Z"/>
          <path class="cls-1" d="m123.82,18.84v8.67h10.02v-8.67h2.7v20.71h-2.7v-9.71h-10.02v9.71h-2.67v-20.71h2.67Z"/>
        </g>
      </g>
    </g>
  </g>
</svg>